<svg xmlns="http://www.w3.org/2000/svg" viewBox="0 0 1200 783" width="1200" height="783">
<style>.s{font-family:'Helvetica Neue',Helvetica,'Inter',Arial,sans-serif}.m{font-family:'SF Mono','JetBrains Mono',Menlo,Consolas,monospace}.d{font-family:'Noto Serif Devanagari','Tiro Devanagari Sanskrit','Kohinoor Devanagari','Devanagari Sangam MN',Mangal,serif}.g{fill:#8c8a84}.i{fill:#111110}.p{fill:#edebe6}</style>
<rect width="1200" height="783" fill="#edebe6"/>
<rect x="40" y="35" width="8" height="8" fill="#ff4f00"/>
<text x="58" y="44" class="m" font-size="12"><tspan class="g">11 / </tspan><tspan class="i">receipt</tspan></text>
<text x="1160" y="44" class="m g" font-size="12" text-anchor="end">the last 12 months</text>
<line x1="40" y1="62" x2="1160" y2="62" stroke="#111110" stroke-opacity=".18"/>
<clipPath id="print1"><rect x="36" y="96" width="448" height="645"><animate attributeName="height" values="0;0;645.0" keyTimes="0;0.103;1" dur="2.90s" fill="freeze" calcMode="spline" keySplines="0 0 1 1;.2 .8 .2 1"/></rect></clipPath><g clip-path="url(#print1)"><path d="M40,96 L480,96 L480,732 L470.0,739 L460.0,732 L450.0,739 L440.0,732 L430.0,739 L420.0,732 L410.0,739 L400.0,732 L390.0,739 L380.0,732 L370.0,739 L360.0,732 L350.0,739 L340.0,732 L330.0,739 L320.0,732 L310.0,739 L300.0,732 L290.0,739 L280.0,732 L270.0,739 L260.0,732 L250.0,739 L240.0,732 L230.0,739 L220.0,732 L210.0,739 L200.0,732 L190.0,739 L180.0,732 L170.0,739 L160.0,732 L150.0,739 L140.0,732 L130.0,739 L120.0,732 L110.0,739 L100.0,732 L90.0,739 L80.0,732 L70.0,739 L60.0,732 L50.0,739 L40.0,732 Z" fill="#f7f6f2"/><text x="260.0" y="132" class="s i" font-size="24" font-weight="700" text-anchor="middle" letter-spacing="-0.5">ABHIJEET-IST</text><text x="260.0" y="154" class="m g" font-size="11" text-anchor="middle">github.com/abhijeet-ist</text><text x="260.0" y="171" class="m g" font-size="11" text-anchor="middle">patna, india · IST +05:30</text><line x1="68" y1="191" x2="452" y2="191" stroke="#111110" stroke-opacity=".35" stroke-dasharray="4 4"/><text x="68" y="217" class="m g" font-size="12">order</text><text x="452" y="217" class="m g" font-size="12" text-anchor="end">#20261005</text><text x="68" y="237" class="m g" font-size="12">period</text><text x="452" y="237" class="m g" font-size="12" text-anchor="end">oct 06 '25 – oct 05 '26</text><line x1="68" y1="255" x2="452" y2="255" stroke="#111110" stroke-opacity=".35" stroke-dasharray="4 4"/><text x="68" y="281" class="m i" font-size="13">contributions</text><text x="452" y="281" class="m i" font-size="13" text-anchor="end">2,774</text><text x="68" y="307" class="m i" font-size="13">commits</text><text x="452" y="307" class="m i" font-size="13" text-anchor="end">862</text><text x="68" y="333" class="m i" font-size="13">pull requests</text><text x="452" y="333" class="m i" font-size="13" text-anchor="end">6</text><text x="68" y="359" class="m i" font-size="13">issues</text><text x="452" y="359" class="m i" font-size="13" text-anchor="end">1</text><text x="68" y="385" class="m i" font-size="13">code reviews</text><text x="452" y="385" class="m i" font-size="13" text-anchor="end">1</text><text x="68" y="411" class="m i" font-size="13">new repositories</text><text x="452" y="411" class="m i" font-size="13" text-anchor="end">9</text><text x="68" y="437" class="m i" font-size="13">stars earned</text><text x="452" y="437" class="m i" font-size="13" text-anchor="end">218</text><text x="68" y="463" class="m i" font-size="13">longest streak</text><text x="452" y="463" class="m i" font-size="13" text-anchor="end">325 days</text><text x="68" y="489" class="m i" font-size="13">busiest day</text><text x="452" y="489" class="m i" font-size="13" text-anchor="end">Aug 1 (34)</text><text x="68" y="515" class="m i" font-size="13">coffee (est.)</text><text x="452" y="515" class="m i" font-size="13" text-anchor="end">216 cups</text><line x1="68" y1="533" x2="452" y2="533" stroke="#111110" stroke-opacity=".35" stroke-dasharray="4 4"/><text x="68" y="573" class="s i" font-size="30" font-weight="700" letter-spacing="-1">TOTAL</text><text x="452" y="573" class="s" font-size="30" font-weight="700" letter-spacing="-1" text-anchor="end" fill="#ff4f00">2,774</text><text x="68" y="593" class="m g" font-size="11">paid in</text><text x="452" y="593" class="m g" font-size="11" text-anchor="end">commits, coffee &amp; curiosity</text><line x1="68" y1="611" x2="452" y2="611" stroke="#111110" stroke-opacity=".35" stroke-dasharray="4 4"/><rect x="68.94" y="627" width="2.39" height="40" fill="#111110"/><rect x="73.61" y="627" width="1.58" height="40" fill="#111110"/><rect x="77.47" y="627" width="2.39" height="40" fill="#111110"/><rect x="80.93" y="627" width="4.01" height="40" fill="#111110"/><rect x="86.41" y="627" width="1.58" height="40" fill="#111110"/><rect x="90.68" y="627" width="1.58" height="40" fill="#111110"/><rect x="94.94" y="627" width="1.58" height="40" fill="#111110"/><rect x="99.21" y="627" width="1.58" height="40" fill="#111110"/><rect x="103.48" y="627" width="1.58" height="40" fill="#111110"/><rect x="107.74" y="627" width="1.58" height="40" fill="#111110"/><rect x="112.01" y="627" width="1.58" height="40" fill="#111110"/><rect x="116.28" y="627" width="1.58" height="40" fill="#111110"/><rect x="120.54" y="627" width="1.58" height="40" fill="#111110"/><rect x="124.81" y="627" width="1.58" height="40" fill="#111110"/><rect x="129.08" y="627" width="1.58" height="40" fill="#111110"/><rect x="133.34" y="627" width="1.58" height="40" fill="#111110"/><rect x="137.61" y="627" width="1.58" height="40" fill="#111110"/><rect x="141.88" y="627" width="1.58" height="40" fill="#111110"/><rect x="145.74" y="627" width="2.39" height="40" fill="#111110"/><rect x="150.01" y="627" width="2.39" height="40" fill="#111110"/><rect x="154.27" y="627" width="2.39" height="40" fill="#111110"/><rect x="158.54" y="627" width="2.39" height="40" fill="#111110"/><rect x="162.81" y="627" width="2.39" height="40" fill="#111110"/><rect x="167.07" y="627" width="2.39" height="40" fill="#111110"/><rect x="170.53" y="627" width="4.01" height="40" fill="#111110"/><rect x="174.79" y="627" width="4.01" height="40" fill="#111110"/><rect x="179.06" y="627" width="4.01" height="40" fill="#111110"/><rect x="183.33" y="627" width="4.01" height="40" fill="#111110"/><rect x="187.59" y="627" width="4.01" height="40" fill="#111110"/><rect x="191.86" y="627" width="4.01" height="40" fill="#111110"/><rect x="196.13" y="627" width="4.01" height="40" fill="#111110"/><rect x="200.80" y="627" width="3.20" height="40" fill="#111110"/><rect x="205.07" y="627" width="3.20" height="40" fill="#111110"/><rect x="209.33" y="627" width="3.20" height="40" fill="#111110"/><rect x="213.60" y="627" width="3.20" height="40" fill="#111110"/><rect x="217.87" y="627" width="3.20" height="40" fill="#111110"/><rect x="221.73" y="627" width="4.01" height="40" fill="#111110"/><rect x="226.40" y="627" width="3.20" height="40" fill="#111110"/><rect x="230.67" y="627" width="3.20" height="40" fill="#111110"/><rect x="235.34" y="627" width="2.39" height="40" fill="#111110"/><rect x="239.20" y="627" width="3.20" height="40" fill="#111110"/><rect x="243.47" y="627" width="3.20" height="40" fill="#111110"/><rect x="247.73" y="627" width="3.20" height="40" fill="#111110"/><rect x="252.00" y="627" width="3.20" height="40" fill="#111110"/><rect x="257.08" y="627" width="1.58" height="40" fill="#111110"/><rect x="261.34" y="627" width="1.58" height="40" fill="#111110"/><rect x="265.61" y="627" width="1.58" height="40" fill="#111110"/><rect x="269.88" y="627" width="1.58" height="40" fill="#111110"/><rect x="274.14" y="627" width="1.58" height="40" fill="#111110"/><rect x="278.41" y="627" width="1.58" height="40" fill="#111110"/><rect x="283.08" y="627" width="0.77" height="40" fill="#111110"/><rect x="286.94" y="627" width="1.58" height="40" fill="#111110"/><rect x="291.21" y="627" width="1.58" height="40" fill="#111110"/><rect x="295.48" y="627" width="1.58" height="40" fill="#111110"/><rect x="299.74" y="627" width="1.58" height="40" fill="#111110"/><rect x="304.01" y="627" width="1.58" height="40" fill="#111110"/><rect x="308.28" y="627" width="1.58" height="40" fill="#111110"/><rect x="312.54" y="627" width="1.58" height="40" fill="#111110"/><rect x="316.81" y="627" width="1.58" height="40" fill="#111110"/><rect x="321.08" y="627" width="1.58" height="40" fill="#111110"/><rect x="325.34" y="627" width="1.58" height="40" fill="#111110"/><rect x="329.61" y="627" width="1.58" height="40" fill="#111110"/><rect x="333.88" y="627" width="1.58" height="40" fill="#111110"/><rect x="338.14" y="627" width="1.58" height="40" fill="#111110"/><rect x="342.41" y="627" width="1.58" height="40" fill="#111110"/><rect x="346.68" y="627" width="1.58" height="40" fill="#111110"/><rect x="350.94" y="627" width="1.58" height="40" fill="#111110"/><rect x="355.21" y="627" width="1.58" height="40" fill="#111110"/><rect x="359.48" y="627" width="1.58" height="40" fill="#111110"/><rect x="363.74" y="627" width="1.58" height="40" fill="#111110"/><rect x="368.01" y="627" width="1.58" height="40" fill="#111110"/><rect x="372.28" y="627" width="1.58" height="40" fill="#111110"/><rect x="376.54" y="627" width="1.58" height="40" fill="#111110"/><rect x="380.81" y="627" width="1.58" height="40" fill="#111110"/><rect x="385.08" y="627" width="1.58" height="40" fill="#111110"/><rect x="389.34" y="627" width="1.58" height="40" fill="#111110"/><rect x="393.61" y="627" width="1.58" height="40" fill="#111110"/><rect x="397.88" y="627" width="1.58" height="40" fill="#111110"/><rect x="402.14" y="627" width="1.58" height="40" fill="#111110"/><rect x="406.41" y="627" width="1.58" height="40" fill="#111110"/><rect x="410.68" y="627" width="1.58" height="40" fill="#111110"/><rect x="414.94" y="627" width="1.58" height="40" fill="#111110"/><rect x="419.21" y="627" width="1.58" height="40" fill="#111110"/><rect x="423.48" y="627" width="1.58" height="40" fill="#111110"/><rect x="427.74" y="627" width="1.58" height="40" fill="#111110"/><rect x="432.01" y="627" width="1.58" height="40" fill="#111110"/><rect x="436.28" y="627" width="1.58" height="40" fill="#111110"/><rect x="440.54" y="627" width="1.58" height="40" fill="#111110"/><rect x="444.81" y="627" width="1.58" height="40" fill="#111110"/><rect x="447.86" y="627" width="4.01" height="40" fill="#111110"/><text x="260.0" y="693" class="m i" font-size="12" text-anchor="middle">thank you for visiting</text><text x="260.0" y="711" class="m g" font-size="11" text-anchor="middle">if life gives you bugs, deploy a hotfix</text></g><rect x="28" y="88" width="464" height="8" rx="4" fill="#111110"/><g><animate attributeName="opacity" values="0;0;1" keyTimes="0;0.588;1" dur="1.70s" fill="freeze"/><text x="560" y="372" class="s i" font-size="76" font-weight="700" letter-spacing="-3">the year,</text><text x="560" y="452" class="s i" font-size="76" font-weight="700" letter-spacing="-3">itemised<tspan fill="#ff4f00">.</tspan></text><text x="564" y="502" class="m g" font-size="13">a receipt for 365 days of shipping</text><text x="564" y="524" class="m g" font-size="13">printed 05 Oct 2026, 18:52 IST</text></g>
</svg>
