<svg xmlns="http://www.w3.org/2000/svg" viewBox="0 0 1200 320" width="1200" height="320"><style>.s{font-family:'Helvetica Neue',Helvetica,'Inter',Arial,sans-serif}.m{font-family:'SF Mono','JetBrains Mono',Menlo,Consolas,monospace}.g{fill:#8c8a84}.i{fill:#111110}</style><rect width="1200" height="320" fill="#edebe6"/><rect x="40" y="35" width="8" height="8" fill="#ff4f00"/><text x="58" y="44" class="m" font-size="12"><tspan class="g">02 / </tspan><tspan class="i">stack</tspan></text><text x="1160" y="44" class="m g" font-size="12" text-anchor="end">what I reach for</text><line x1="40" y1="62" x2="1160" y2="62" stroke="#111110" stroke-opacity=".18"/><text x="40" y="104" class="m g" font-size="11">languages</text><text x="40" y="134" class="m i" font-size="14">TypeScript</text><text x="40" y="160" class="m i" font-size="14">Python</text><text x="40" y="186" class="m i" font-size="14">JavaScript</text><text x="40" y="212" class="m i" font-size="14">Java</text><text x="40" y="238" class="m i" font-size="14">C++</text><text x="40" y="264" class="m i" font-size="14">Bash</text><text x="230" y="104" class="m g" font-size="11">frontend</text><text x="230" y="134" class="m i" font-size="14">Next.js</text><text x="230" y="160" class="m i" font-size="14">React</text><text x="230" y="186" class="m i" font-size="14">Tailwind</text><text x="230" y="212" class="m i" font-size="14">Vite</text><text x="230" y="238" class="m i" font-size="14">Redux</text><text x="230" y="264" class="m i" font-size="14">Figma</text><line x1="215" y1="90" x2="215" y2="272" stroke="#111110" stroke-opacity=".1"/><text x="420" y="104" class="m g" font-size="11">backend</text><text x="420" y="134" class="m i" font-size="14">Node.js</text><text x="420" y="160" class="m i" font-size="14">Express</text><text x="420" y="186" class="m i" font-size="14">Django</text><text x="420" y="212" class="m i" font-size="14">Flask</text><text x="420" y="238" class="m i" font-size="14">Prisma</text><text x="420" y="264" class="m i" font-size="14">Bun</text><line x1="405" y1="90" x2="405" y2="272" stroke="#111110" stroke-opacity=".1"/><text x="610" y="104" class="m g" font-size="11">ai / data</text><text x="610" y="134" class="m i" font-size="14">Ollama</text><text x="610" y="160" class="m i" font-size="14">TensorFlow</text><text x="610" y="186" class="m i" font-size="14">Pandas</text><text x="610" y="212" class="m i" font-size="14">NumPy</text><text x="610" y="238" class="m i" font-size="14">Jupyter</text><text x="610" y="264" class="m i" font-size="14">Streamlit</text><line x1="595" y1="90" x2="595" y2="272" stroke="#111110" stroke-opacity=".1"/><text x="800" y="104" class="m g" font-size="11">databases</text><text x="800" y="134" class="m i" font-size="14">PostgreSQL</text><text x="800" y="160" class="m i" font-size="14">MongoDB</text><text x="800" y="186" class="m i" font-size="14">Redis</text><text x="800" y="212" class="m i" font-size="14">Supabase</text><text x="800" y="238" class="m i" font-size="14">NeonDB</text><text x="800" y="264" class="m i" font-size="14">Firebase</text><line x1="785" y1="90" x2="785" y2="272" stroke="#111110" stroke-opacity=".1"/><text x="990" y="104" class="m g" font-size="11">infra</text><text x="990" y="134" class="m i" font-size="14">Docker</text><text x="990" y="160" class="m i" font-size="14">Vercel</text><text x="990" y="186" class="m i" font-size="14">AWS</text><text x="990" y="212" class="m i" font-size="14">Nginx</text><text x="990" y="238" class="m i" font-size="14">Netlify</text><text x="990" y="264" class="m i" font-size="14">GitHub Actions</text><line x1="975" y1="90" x2="975" y2="272" stroke="#111110" stroke-opacity=".1"/></svg>
